<svg xmlns="http://www.w3.org/2000/svg" viewBox="0 0 512 512" role="img" aria-label="Nexo Saude">
  <defs>
    <linearGradient id="bg" x1="70" y1="42" x2="442" y2="470" gradientUnits="userSpaceOnUse">
      <stop stop-color="#061635"/>
      <stop offset="1" stop-color="#0a2d60"/>
    </linearGradient>
    <linearGradient id="blade" x1="76" y1="364" x2="444" y2="112" gradientUnits="userSpaceOnUse">
      <stop stop-color="#1b6dff"/>
      <stop offset=".52" stop-color="#0a49d8"/>
      <stop offset="1" stop-color="#4aa3ff"/>
    </linearGradient>
    <linearGradient id="crescent" x1="70" y1="84" x2="292" y2="438" gradientUnits="userSpaceOnUse">
      <stop stop-color="#57b4ff"/>
      <stop offset=".55" stop-color="#1b6dff"/>
      <stop offset="1" stop-color="#0a49d8"/>
    </linearGradient>
  </defs>
  <rect x="16" y="16" width="480" height="480" rx="108" fill="url(#bg)"/>
  <path d="M97 81c84 9 153 83 195 207 14 42 39 79 76 111-105 9-193-50-226-157-18-58-34-111-45-161Z" fill="url(#crescent)"/>
  <path d="M70 360 444 112 360 222 92 386Z" fill="url(#blade)"/>
  <path d="M86 386 362 222 326 284 116 404Z" fill="#003dbe"/>
  <path d="M126 332 390 150 356 194 146 342Z" fill="#7ec8ff" opacity=".55"/>
</svg>
